<svg width="48" height="48" viewBox="0 0 48 48" fill="none" xmlns="http://www.w3.org/2000/svg">
<g clip-path="url(#clip0_22_4465)">
<path d="M23.9915 0C23.9577 0 23.9238 0 23.8899 0C10.6836 0.0507936 0 10.7852 0 23.9915C0 37.1979 10.6836 47.9323 23.8899 47.9831C23.9238 47.9831 23.9577 47.9831 23.9915 47.9831C37.2487 47.9831 47.9831 37.2317 47.9831 23.9915C47.9831 10.7513 37.2487 0 23.9915 0Z" fill="url(#paint0_linear_22_4465)"/>
<path d="M28.891 9.77819L27.085 9.9215L28.6265 29.3489L30.4325 29.2056L28.891 9.77819Z" fill="#208BE9"/>
<path d="M20.9528 9.95636L19.147 9.81231L17.5975 29.2378L19.4033 29.3818L20.9528 9.95636Z" fill="#3E9BEC"/>
<path d="M24.5333 9.76909H23.4497V16.0844H24.5333V9.76909Z" fill="#0C4679"/>
<path d="M24.5333 23.1109H23.4497V29.4093H24.5333V23.1109Z" fill="#0C4679"/>
<path d="M27.2254 19.5892C27.2254 17.4559 25.4984 15.712 23.3481 15.712V23.4665C25.4984 23.4665 27.2254 21.7395 27.2254 19.5892Z" fill="#208BE9"/>
<path d="M36.1986 36.2329H22.5352V38.18H36.1986C36.351 38.18 36.4865 38.0615 36.4865 37.9091V36.5207C36.4695 36.3683 36.351 36.2329 36.1986 36.2329Z" fill="#1B1B1B"/>
<path d="M25.0751 35.3858H33.3376C33.3376 35.3858 33.3376 34.8101 33.3376 32.4398C33.3376 30.5773 32.2032 30.3064 31.7122 30.2726H31.4921H23.3989H23.382H23.3481V35.3858H25.0751Z" fill="#1B1B1B"/>
<path d="M20.1143 19.5892C20.1143 21.7226 21.8412 23.4665 23.9915 23.4665V15.712C21.8582 15.712 20.1143 17.4559 20.1143 19.5892Z" fill="#3E9BEC"/>
<path d="M27.8685 19.5892C27.8685 17.4559 26.1415 15.712 23.9912 15.712V23.4665C26.1415 23.4665 27.8685 21.7395 27.8685 19.5892Z" fill="#208BE9"/>
<path opacity="0.99" d="M24.889 9.76909C25.2276 9.83682 25.8371 10.3109 25.9387 12.6474C26.0572 15.8474 26.7853 29.0876 26.8022 29.4093H29.5112C29.5112 29.4093 28.2244 15.8982 28.0213 12.6474C27.8689 10.3109 26.8191 9.85375 26.2435 9.76909H22.9927H24.889ZM26.8869 13.3416C27.1239 13.2908 27.3609 13.5617 27.3948 13.9511L28.5292 26.6665C28.5631 27.0559 28.3937 27.4114 28.1567 27.4622C27.9197 27.513 27.6826 27.2421 27.6488 26.8527L26.5144 14.1373C26.4805 13.7649 26.6498 13.4093 26.8869 13.3416Z" fill="#208BE9"/>
<path d="M20.0973 9.76909C19.5216 9.83682 18.4719 10.3109 18.3195 12.6474C18.1164 15.8982 16.8296 29.4093 16.8296 29.4093H19.5386C19.5555 29.0876 20.2836 15.8643 20.4021 12.6474C20.4867 10.3109 21.1132 9.85375 21.4518 9.76909H23.3481H20.0973Z" fill="#3E9BEC"/>
<path d="M37.5531 36.2329H23.8896V38.2308H37.5531C37.7055 38.2308 37.841 38.0953 37.841 37.9429V36.5207C37.841 36.3683 37.7055 36.2329 37.5531 36.2329Z" fill="#1B1B1B"/>
<path d="M26.2092 35.3858H36.7912C36.7912 35.3858 36.7912 34.8101 36.7912 32.4398C36.7912 30.5773 35.3521 30.3064 34.7087 30.2726H34.4208H24.0589H24.042H23.9912V35.3858H26.2092Z" fill="#1B1B1B"/>
<path d="M27.0219 9.76909C27.5637 9.83682 28.5457 10.3109 28.6812 12.6474C28.8674 15.8474 30.0357 29.0876 30.0695 29.4093H34.387C34.387 29.4093 32.3383 15.8982 32.0166 12.6474C31.7796 10.3109 30.0865 9.85375 29.1722 9.76909H23.9912H27.0219ZM30.2388 13.3416C30.6283 13.2908 30.9838 13.5617 31.0346 13.9511L32.8293 26.6665C32.8801 27.0559 32.6092 27.4114 32.2198 27.4622C31.8304 27.513 31.4748 27.2421 31.424 26.8527L29.6293 14.1543C29.5785 13.7649 29.8494 13.4093 30.2388 13.3416Z" fill="#208BE9"/>
<path d="M19.1152 9.76909C18.2009 9.83682 16.5078 10.3109 16.2708 12.6474C15.9321 15.8982 13.9004 29.4093 13.9004 29.4093H18.2178C18.2517 29.0876 19.42 15.8643 19.6062 12.6474C19.7417 10.3109 20.7237 9.85375 21.2655 9.76909H24.2962H19.1152Z" fill="#3E9BEC"/>
<path d="M27.0219 9.76909H23.9912V16.0844C25.9383 16.0844 27.5129 17.659 27.5129 19.6061C27.5129 21.5532 25.9383 23.1278 23.9912 23.1278V29.4262H24.5669H25.278H30.0865C30.0526 29.1045 28.8843 15.8813 28.6981 12.6643C28.5457 10.3109 27.5637 9.85375 27.0219 9.76909Z" fill="#21AFFD"/>
<path d="M27.0219 9.76909H23.9912V16.0844C25.9383 16.0844 27.5129 17.659 27.5129 19.6061C27.5129 21.5532 25.9383 23.1278 23.9912 23.1278V29.4262H24.5669H25.278H30.0865C30.0526 29.1045 28.8843 15.8813 28.6981 12.6643C28.5457 10.3109 27.5637 9.85375 27.0219 9.76909Z" fill="#0C4679"/>
<path d="M31.4244 26.8694C31.4752 27.2588 31.8476 27.5297 32.2201 27.4789C32.6096 27.4281 32.8805 27.0556 32.8297 26.6831L31.0349 13.9678C30.9842 13.5784 30.6117 13.3075 30.2392 13.3583C29.8498 13.4091 29.5789 13.7816 29.6297 14.154L31.4244 26.8694Z" fill="white"/>
<path d="M10.2263 36.2329H23.8898V38.2308H10.2263C10.0739 38.2308 9.93848 38.0953 9.93848 37.9429V36.5207C9.93848 36.3683 10.0739 36.2329 10.2263 36.2329Z" fill="#333333"/>
<path d="M21.6888 35.3858H11.0898C11.0898 35.3858 11.0898 34.8101 11.0898 32.4398C11.0898 30.5773 12.529 30.3064 13.1724 30.2726H13.4602H23.8221H23.8391H23.8898V35.3858H21.6888Z" fill="#333333"/>
<path d="M20.9605 9.76909H23.9912V16.0844C22.0441 16.0844 20.4695 17.659 20.4695 19.6061C20.4695 21.5532 22.0441 23.1278 23.9912 23.1278V29.4262H23.4156H22.7045H17.896C17.9299 29.1045 19.0981 15.8813 19.2844 12.6643C19.4367 10.3109 20.4187 9.85375 20.9605 9.76909Z" fill="#0F5797"/>
</g>
<defs>
<linearGradient id="paint0_linear_22_4465" x1="23.997" y1="0" x2="23.997" y2="47.994" gradientUnits="userSpaceOnUse">
<stop stop-color="#F5DF2E"/>
<stop offset="1" stop-color="#F07554"/>
</linearGradient>
<clipPath id="clip0_22_4465">
<rect width="48" height="48" fill="white"/>
</clipPath>
</defs>
</svg>
