<svg xmlns="http://www.w3.org/2000/svg" width="48" height="48" viewBox="0 0 48 48" fill="none">
    <g clip-path="url(#clip0_1_44)">
      <path d="M23.9915 0C23.9577 0 23.9238 0 23.8899 0C10.6836 0.0507936 0 10.7852 0 23.9915C0 37.1979 10.6836 47.9323 23.8899 47.9831C23.9238 47.9831 23.9577 47.9831 23.9915 47.9831C37.2487 47.9831 47.9831 37.2317 47.9831 23.9915C47.9831 10.7513 37.2487 0 23.9915 0Z" fill="url(#paint0_linear_1_44)"/>
      <path d="M28.8913 9.77819L27.0853 9.9215L28.6269 29.3489L30.4329 29.2056L28.8913 9.77819Z" fill="#208BE9"/>
      <path d="M20.9528 9.95636L19.147 9.81231L17.5975 29.2378L19.4033 29.3818L20.9528 9.95636Z" fill="#3E9BEC"/>
      <path d="M24.5334 9.76909H23.4498V16.0844H24.5334V9.76909Z" fill="#0C4679"/>
      <path d="M24.5334 23.1109H23.4498V29.4093H24.5334V23.1109Z" fill="#0C4679"/>
      <path d="M27.2254 19.5892C27.2254 17.4559 25.4984 15.712 23.3481 15.712V23.4665C25.4984 23.4665 27.2254 21.7395 27.2254 19.5892Z" fill="#208BE9"/>
      <path d="M36.1988 36.2329H22.5354V38.18H36.1988C36.3512 38.18 36.4867 38.0615 36.4867 37.9091V36.5207C36.4697 36.3683 36.3512 36.2329 36.1988 36.2329Z" fill="#1B1B1B"/>
      <path d="M25.0751 35.3858H33.3376C33.3376 35.3858 33.3376 34.8101 33.3376 32.4398C33.3376 30.5773 32.2032 30.3064 31.7122 30.2726H31.4921H23.3989H23.382H23.3481V35.3858H25.0751Z" fill="#1B1B1B"/>
      <path d="M20.1143 19.5892C20.1143 21.7226 21.8413 23.4665 23.9916 23.4665V15.712C21.8582 15.712 20.1143 17.4559 20.1143 19.5892Z" fill="#3E9BEC"/>
      <path d="M27.8688 19.5892C27.8688 17.4559 26.1418 15.712 23.9916 15.712V23.4665C26.1418 23.4665 27.8688 21.7395 27.8688 19.5892Z" fill="#208BE9"/>
      <path opacity="0.99" d="M24.8889 9.76909C25.2275 9.83682 25.837 10.3109 25.9386 12.6474C26.0571 15.8474 26.7852 29.0876 26.8021 29.4093H29.5111C29.5111 29.4093 28.2243 15.8982 28.0211 12.6474C27.8688 10.3109 26.819 9.85375 26.2434 9.76909H22.9926H24.8889ZM26.8867 13.3416C27.1238 13.2908 27.3608 13.5617 27.3947 13.9511L28.5291 26.6665C28.5629 27.0559 28.3936 27.4114 28.1566 27.4622C27.9195 27.513 27.6825 27.2421 27.6487 26.8527L26.5143 14.1373C26.4804 13.7649 26.6497 13.4093 26.8867 13.3416Z" fill="#208BE9"/>
      <path d="M20.0973 9.76909C19.5217 9.83682 18.4719 10.3109 18.3195 12.6474C18.1164 15.8982 16.8296 29.4093 16.8296 29.4093H19.5386C19.5555 29.0876 20.2836 15.8643 20.4021 12.6474C20.4867 10.3109 21.1132 9.85375 21.4518 9.76909H23.3481H20.0973Z" fill="#3E9BEC"/>
      <path d="M37.5534 36.2329H23.8899V38.2308H37.5534C37.7058 38.2308 37.8413 38.0953 37.8413 37.9429V36.5207C37.8413 36.3683 37.7058 36.2329 37.5534 36.2329Z" fill="#1B1B1B"/>
      <path d="M26.2096 35.3858H36.7916C36.7916 35.3858 36.7916 34.8101 36.7916 32.4398C36.7916 30.5773 35.3524 30.3064 34.709 30.2726H34.4212H24.0593H24.0424H23.9916V35.3858H26.2096Z" fill="#1B1B1B"/>
      <path d="M27.0223 9.76909C27.5641 9.83682 28.5461 10.3109 28.6815 12.6474C28.8678 15.8474 30.036 29.0876 30.0699 29.4093H34.3873C34.3873 29.4093 32.3387 15.8982 32.017 12.6474C31.7799 10.3109 30.0868 9.85375 29.1725 9.76909H23.9916H27.0223ZM30.2392 13.3416C30.6286 13.2908 30.9842 13.5617 31.035 13.9511L32.8297 26.6665C32.8805 27.0559 32.6096 27.4114 32.2201 27.4622C31.8307 27.513 31.4752 27.2421 31.4244 26.8527L29.6297 14.1543C29.5789 13.7649 29.8498 13.4093 30.2392 13.3416Z" fill="#208BE9"/>
      <path d="M19.1153 9.76909C18.201 9.83682 16.5079 10.3109 16.2708 12.6474C15.9322 15.8982 13.9005 29.4093 13.9005 29.4093H18.2179C18.2518 29.0876 19.42 15.8643 19.6063 12.6474C19.7417 10.3109 20.7237 9.85375 21.2655 9.76909H24.2962H19.1153Z" fill="#3E9BEC"/>
      <path d="M27.0223 9.76909H23.9916V16.0844C25.9387 16.0844 27.5133 17.659 27.5133 19.6061C27.5133 21.5532 25.9387 23.1278 23.9916 23.1278V29.4262H24.5672H25.2783H30.0868C30.0529 29.1045 28.8847 15.8813 28.6984 12.6643C28.5461 10.3109 27.5641 9.85375 27.0223 9.76909Z" fill="#21AFFD"/>
      <path d="M27.0223 9.76909H23.9916V16.0844C25.9387 16.0844 27.5133 17.659 27.5133 19.6061C27.5133 21.5532 25.9387 23.1278 23.9916 23.1278V29.4262H24.5672H25.2783H30.0868C30.0529 29.1045 28.8847 15.8813 28.6984 12.6643C28.5461 10.3109 27.5641 9.85375 27.0223 9.76909Z" fill="#0C4679"/>
      <path d="M31.4244 26.8694C31.4751 27.2588 31.8476 27.5297 32.2201 27.4789C32.6095 27.4281 32.8804 27.0556 32.8296 26.6831L31.0349 13.9678C30.9841 13.5784 30.6117 13.3075 30.2392 13.3583C29.8497 13.4091 29.5788 13.7816 29.6296 14.154L31.4244 26.8694Z" fill="white"/>
      <path d="M10.2264 36.2329H23.8899V38.2308H10.2264C10.074 38.2308 9.9386 38.0953 9.9386 37.9429V36.5207C9.9386 36.3683 10.074 36.2329 10.2264 36.2329Z" fill="#333333"/>
      <path d="M21.6889 35.3858H11.09C11.09 35.3858 11.09 34.8101 11.09 32.4398C11.09 30.5773 12.5291 30.3064 13.1725 30.2726H13.4603H23.8222H23.8392H23.89V35.3858H21.6889Z" fill="#333333"/>
      <path d="M20.9608 9.76909H23.9914V16.0844C22.0444 16.0844 20.4697 17.659 20.4697 19.6061C20.4697 21.5532 22.0444 23.1278 23.9914 23.1278V29.4262H23.4158H22.7047H17.8962C17.9301 29.1045 19.0983 15.8813 19.2846 12.6643C19.4369 10.3109 20.419 9.85375 20.9608 9.76909Z" fill="#0F5797"/>
    </g>
    <defs>
      <linearGradient id="paint0_linear_1_44" x1="23.997" y1="0" x2="23.997" y2="47.994" gradientUnits="userSpaceOnUse">
        <stop stop-color="#F5DF2E"/>
        <stop offset="1" stop-color="#F07554"/>
      </linearGradient>
      <clipPath id="clip0_1_44">
        <rect width="48" height="48" fill="white"/>
      </clipPath>
    </defs>
  </svg>