<svg width="284" height="48" viewBox="0 0 284 48" fill="none" xmlns="http://www.w3.org/2000/svg">
<g clip-path="url(#clip0_22_4464)">
<path d="M23.9915 0C23.9577 0 23.9238 0 23.8899 0C10.6836 0.0507936 0 10.7852 0 23.9915C0 37.1979 10.6836 47.9323 23.8899 47.9831C23.9238 47.9831 23.9577 47.9831 23.9915 47.9831C37.2487 47.9831 47.9831 37.2317 47.9831 23.9915C47.9831 10.7513 37.2487 0 23.9915 0Z" fill="url(#paint0_linear_22_4464)"/>
<path d="M28.891 9.77819L27.085 9.9215L28.6265 29.3489L30.4325 29.2056L28.891 9.77819Z" fill="#208BE9"/>
<path d="M20.9528 9.95636L19.147 9.81231L17.5975 29.2378L19.4033 29.3818L20.9528 9.95636Z" fill="#3E9BEC"/>
<path d="M24.5333 9.76909H23.4497V16.0844H24.5333V9.76909Z" fill="#0C4679"/>
<path d="M24.5333 23.1109H23.4497V29.4093H24.5333V23.1109Z" fill="#0C4679"/>
<path d="M27.2254 19.5892C27.2254 17.4559 25.4984 15.712 23.3481 15.712V23.4665C25.4984 23.4665 27.2254 21.7395 27.2254 19.5892Z" fill="#208BE9"/>
<path d="M36.1986 36.2329H22.5352V38.18H36.1986C36.351 38.18 36.4865 38.0615 36.4865 37.9091V36.5207C36.4695 36.3683 36.351 36.2329 36.1986 36.2329Z" fill="#1B1B1B"/>
<path d="M25.0751 35.3858H33.3376C33.3376 35.3858 33.3376 34.8101 33.3376 32.4398C33.3376 30.5773 32.2032 30.3064 31.7122 30.2726H31.4921H23.3989H23.382H23.3481V35.3858H25.0751Z" fill="#1B1B1B"/>
<path d="M20.1143 19.5892C20.1143 21.7226 21.8412 23.4665 23.9915 23.4665V15.712C21.8582 15.712 20.1143 17.4559 20.1143 19.5892Z" fill="#3E9BEC"/>
<path d="M27.8685 19.5892C27.8685 17.4559 26.1415 15.712 23.9912 15.712V23.4665C26.1415 23.4665 27.8685 21.7395 27.8685 19.5892Z" fill="#208BE9"/>
<path opacity="0.99" d="M24.889 9.76909C25.2276 9.83682 25.8371 10.3109 25.9387 12.6474C26.0572 15.8474 26.7853 29.0876 26.8022 29.4093H29.5112C29.5112 29.4093 28.2244 15.8982 28.0213 12.6474C27.8689 10.3109 26.8191 9.85375 26.2435 9.76909H22.9927H24.889ZM26.8869 13.3416C27.1239 13.2908 27.3609 13.5617 27.3948 13.9511L28.5292 26.6665C28.5631 27.0559 28.3937 27.4114 28.1567 27.4622C27.9197 27.513 27.6826 27.2421 27.6488 26.8527L26.5144 14.1373C26.4805 13.7649 26.6498 13.4093 26.8869 13.3416Z" fill="#208BE9"/>
<path d="M20.0973 9.76909C19.5216 9.83682 18.4719 10.3109 18.3195 12.6474C18.1164 15.8982 16.8296 29.4093 16.8296 29.4093H19.5386C19.5555 29.0876 20.2836 15.8643 20.4021 12.6474C20.4867 10.3109 21.1132 9.85375 21.4518 9.76909H23.3481H20.0973Z" fill="#3E9BEC"/>
<path d="M37.5531 36.2329H23.8896V38.2308H37.5531C37.7055 38.2308 37.841 38.0953 37.841 37.9429V36.5207C37.841 36.3683 37.7055 36.2329 37.5531 36.2329Z" fill="#1B1B1B"/>
<path d="M26.2092 35.3858H36.7912C36.7912 35.3858 36.7912 34.8101 36.7912 32.4398C36.7912 30.5773 35.3521 30.3064 34.7087 30.2726H34.4208H24.0589H24.042H23.9912V35.3858H26.2092Z" fill="#1B1B1B"/>
<path d="M27.0219 9.76909C27.5637 9.83682 28.5457 10.3109 28.6812 12.6474C28.8674 15.8474 30.0357 29.0876 30.0695 29.4093H34.387C34.387 29.4093 32.3383 15.8982 32.0166 12.6474C31.7796 10.3109 30.0865 9.85375 29.1722 9.76909H23.9912H27.0219ZM30.2388 13.3416C30.6283 13.2908 30.9838 13.5617 31.0346 13.9511L32.8293 26.6665C32.8801 27.0559 32.6092 27.4114 32.2198 27.4622C31.8304 27.513 31.4748 27.2421 31.424 26.8527L29.6293 14.1543C29.5785 13.7649 29.8494 13.4093 30.2388 13.3416Z" fill="#208BE9"/>
<path d="M19.1152 9.76909C18.2009 9.83682 16.5078 10.3109 16.2708 12.6474C15.9321 15.8982 13.9004 29.4093 13.9004 29.4093H18.2178C18.2517 29.0876 19.42 15.8643 19.6062 12.6474C19.7417 10.3109 20.7237 9.85375 21.2655 9.76909H24.2962H19.1152Z" fill="#3E9BEC"/>
<path d="M27.0219 9.76909H23.9912V16.0844C25.9383 16.0844 27.5129 17.659 27.5129 19.6061C27.5129 21.5532 25.9383 23.1278 23.9912 23.1278V29.4262H24.5669H25.278H30.0865C30.0526 29.1045 28.8843 15.8813 28.6981 12.6643C28.5457 10.3109 27.5637 9.85375 27.0219 9.76909Z" fill="#21AFFD"/>
<path d="M27.0219 9.76909H23.9912V16.0844C25.9383 16.0844 27.5129 17.659 27.5129 19.6061C27.5129 21.5532 25.9383 23.1278 23.9912 23.1278V29.4262H24.5669H25.278H30.0865C30.0526 29.1045 28.8843 15.8813 28.6981 12.6643C28.5457 10.3109 27.5637 9.85375 27.0219 9.76909Z" fill="#0C4679"/>
<path d="M31.4244 26.8694C31.4752 27.2588 31.8476 27.5297 32.2201 27.4789C32.6096 27.4281 32.8805 27.0556 32.8297 26.6831L31.0349 13.9678C30.9842 13.5784 30.6117 13.3075 30.2392 13.3583C29.8498 13.4091 29.5789 13.7816 29.6297 14.154L31.4244 26.8694Z" fill="white"/>
<path d="M10.2263 36.2329H23.8898V38.2308H10.2263C10.0739 38.2308 9.93848 38.0953 9.93848 37.9429V36.5207C9.93848 36.3683 10.0739 36.2329 10.2263 36.2329Z" fill="#333333"/>
<path d="M21.6888 35.3858H11.0898C11.0898 35.3858 11.0898 34.8101 11.0898 32.4398C11.0898 30.5773 12.529 30.3064 13.1724 30.2726H13.4602H23.8221H23.8391H23.8898V35.3858H21.6888Z" fill="#333333"/>
<path d="M20.9605 9.76909H23.9912V16.0844C22.0441 16.0844 20.4695 17.659 20.4695 19.6061C20.4695 21.5532 22.0441 23.1278 23.9912 23.1278V29.4262H23.4156H22.7045H17.896C17.9299 29.1045 19.0981 15.8813 19.2844 12.6643C19.4367 10.3109 20.4187 9.85375 20.9605 9.76909Z" fill="#0F5797"/>
</g>
<g clip-path="url(#clip1_22_4464)">
<path d="M84.9502 32.5V20.7202L78.7246 32.5H74.3789L68.1533 20.7202V32.5H63.6245V15.7275H69.7769L76.5518 28.4229L83.3267 15.7275H89.4546V32.5H84.9502ZM105.958 32.5H100.685L92.2012 15.7275H97.2549L103.358 28.3496L109.45 15.7275H114.503L105.958 32.5ZM137.807 24.1016C137.807 25.1758 137.689 26.132 137.453 26.9702C137.217 27.8003 136.883 28.5246 136.452 29.1431C136.028 29.7616 135.516 30.2865 134.914 30.7178C134.319 31.1491 133.656 31.495 132.924 31.7554C132.191 32.0158 131.402 32.207 130.556 32.3291C129.709 32.443 128.826 32.5 127.907 32.5H117.262V15.7275H127.882C128.802 15.7275 129.685 15.7886 130.531 15.9106C131.378 16.0246 132.167 16.2118 132.899 16.4722C133.64 16.7326 134.311 17.0784 134.914 17.5098C135.516 17.9329 136.028 18.4578 136.452 19.0845C136.883 19.703 137.217 20.4272 137.453 21.2573C137.689 22.0874 137.807 23.0355 137.807 24.1016ZM133.241 24.1016C133.241 23.2959 133.135 22.596 132.924 22.0019C132.72 21.4079 132.387 20.9196 131.923 20.5371C131.467 20.1465 130.869 19.8576 130.128 19.6704C129.388 19.4751 128.485 19.3774 127.419 19.3774H121.791V28.8501H127.419C128.485 28.8501 129.388 28.7565 130.128 28.5693C130.869 28.374 131.467 28.0811 131.923 27.6904C132.387 27.2917 132.72 26.7952 132.924 26.2012C133.135 25.6071 133.241 24.9072 133.241 24.1016ZM167.396 32.5V25.5054H155.873V32.5H151.344V15.7275H155.873V21.831H167.396V15.7275H171.925V32.5H167.396ZM177.174 32.5V15.7275H194.154V19.3042H181.825V22.0752H193.52V25.6519H181.825V28.9233H194.325V32.5H177.174ZM198.708 32.5V15.7275H203.236V28.8257H215.48V32.5H198.708ZM237.965 21.4526C237.965 22.2909 237.843 23.064 237.599 23.772C237.355 24.4718 236.96 25.0781 236.415 25.5908C235.878 26.0954 235.178 26.4901 234.315 26.7749C233.453 27.0597 232.403 27.2021 231.166 27.2021H223.646V32.5H219.118V15.7275H231.166C232.403 15.7275 233.453 15.87 234.315 16.1548C235.178 16.4315 235.878 16.8262 236.415 17.3389C236.96 17.8434 237.355 18.4456 237.599 19.1455C237.843 19.8454 237.965 20.6144 237.965 21.4526ZM233.388 21.5259C233.388 21.1353 233.331 20.8016 233.217 20.5249C233.111 20.2401 232.932 20.0081 232.68 19.8291C232.427 19.6501 232.098 19.5199 231.691 19.4385C231.284 19.349 230.784 19.3042 230.189 19.3042H223.646V23.6255H230.189C230.784 23.6255 231.284 23.5929 231.691 23.5278C232.098 23.4546 232.427 23.3366 232.68 23.1738C232.932 23.0029 233.111 22.7832 233.217 22.5146C233.331 22.2461 233.388 21.9165 233.388 21.5259ZM241.725 32.5V15.7275H258.705V19.3042H246.376V22.0752H258.07V25.6519H246.376V28.9233H258.876V32.5H241.725ZM267.787 32.5H263.258V15.7275H274.611C275.832 15.7275 276.865 15.8537 277.711 16.106C278.566 16.3582 279.258 16.7163 279.787 17.1802C280.324 17.644 280.71 18.2056 280.946 18.8647C281.19 19.5158 281.312 20.2441 281.312 21.0498C281.312 21.7578 281.211 22.3763 281.007 22.9053C280.812 23.4342 280.543 23.89 280.202 24.2725C279.868 24.6468 279.477 24.9642 279.03 25.2246C278.582 25.485 278.11 25.7007 277.614 25.8716L283.107 32.5H277.809L272.731 26.3232H267.787V32.5ZM276.735 21.0254C276.735 20.6999 276.69 20.4232 276.601 20.1953C276.519 19.9675 276.373 19.7843 276.161 19.646C275.95 19.4995 275.665 19.3937 275.307 19.3286C274.957 19.2635 274.517 19.231 273.988 19.231H267.787V22.8198H273.988C274.517 22.8198 274.957 22.7873 275.307 22.7222C275.665 22.6571 275.95 22.5553 276.161 22.417C276.373 22.2705 276.519 22.0833 276.601 21.8555C276.69 21.6276 276.735 21.3509 276.735 21.0254Z" fill="white"/>
</g>
<defs>
<linearGradient id="paint0_linear_22_4464" x1="23.997" y1="0" x2="23.997" y2="47.994" gradientUnits="userSpaceOnUse">
<stop stop-color="#F5DF2E"/>
<stop offset="1" stop-color="#F07554"/>
</linearGradient>
<clipPath id="clip0_22_4464">
<rect width="48" height="48" fill="white"/>
</clipPath>
<clipPath id="clip1_22_4464">
<rect width="221" height="17" fill="white" transform="translate(63 15.5)"/>
</clipPath>
</defs>
</svg>
